<?xml version="1.0" encoding="UTF-8" standalone="no"?>
<!DOCTYPE svg PUBLIC "-//W3C//DTD SVG 1.1//EN" "http://www.w3.org/Graphics/SVG/1.1/DTD/svg11.dtd">
<svg width="100%" height="100%" viewBox="0 0 512 512" version="1.1" xmlns="http://www.w3.org/2000/svg" xmlns:xlink="http://www.w3.org/1999/xlink" xml:space="preserve" xmlns:serif="http://www.serif.com/" style="fill-rule:evenodd;clip-rule:evenodd;stroke-linejoin:round;stroke-miterlimit:2;">
    <g transform="matrix(-2.05494e-16,-1.11483,1.12057,-2.05143e-16,-80.3361,588.945)">
        <path d="M499.578,500.024C398.874,500.024 298.651,399.952 298.651,300.147C398.97,300.147 499.578,399.836 499.578,500.024Z" style="fill:rgb(133,212,230);"/>
    </g>
    <g transform="matrix(6.84655e-17,1.11813,-1.1208,6.86292e-17,816.405,-750.221)">
        <path d="M899.917,500.024C801.697,398.32 801.583,398.182 699.582,300.147C797.943,401.884 798.048,401.99 899.917,500.024Z" style="fill:white;"/>
    </g>
    <g transform="matrix(-2.05494e-16,-1.11483,1.12057,-2.05143e-16,-304.359,812.945)">
        <path d="M499.578,500.024C398.874,500.024 298.651,399.952 298.651,300.147C398.97,300.147 499.578,399.836 499.578,500.024Z" style="fill:rgb(133,212,230);"/>
    </g>
    <g transform="matrix(6.84655e-17,1.11813,-1.1208,6.86292e-17,592.382,-526.221)">
        <path d="M899.917,500.024C801.697,398.32 801.583,398.182 699.582,300.147C797.943,401.884 798.048,401.99 899.917,500.024Z" style="fill:white;"/>
    </g>
    <g transform="matrix(1.11483,-2.62157e-17,2.49409e-17,1.12057,-300.99,-304.336)">
        <path d="M499.578,500.024C398.874,500.024 298.651,399.952 298.651,300.147C398.97,300.147 499.578,399.836 499.578,500.024Z" style="fill:rgb(124,214,154);"/>
    </g>
    <g transform="matrix(-1.11813,-1.11343e-16,1.11609e-16,-1.1208,1038.18,592.405)">
        <path d="M899.917,500.024C801.697,398.32 801.583,398.182 699.582,300.147C797.943,401.884 798.048,401.99 899.917,500.024Z" style="fill:white;"/>
    </g>
    <g transform="matrix(1.11483,-2.62157e-17,2.49409e-17,1.12057,-76.9904,-80.3361)">
        <path d="M499.578,500.024C398.874,500.024 298.651,399.952 298.651,300.147C398.97,300.147 499.578,399.836 499.578,500.024Z" style="fill:rgb(124,214,154);"/>
    </g>
    <g transform="matrix(-1.11813,-1.11343e-16,1.11609e-16,-1.1208,1262.18,816.405)">
        <path d="M899.917,500.024C801.697,398.32 801.583,398.182 699.582,300.147C797.943,401.884 798.048,401.99 899.917,500.024Z" style="fill:white;"/>
    </g>
</svg>
