<?xml version="1.0" encoding="UTF-8" standalone="no"?>
<!DOCTYPE svg PUBLIC "-//W3C//DTD SVG 1.1//EN" "http://www.w3.org/Graphics/SVG/1.1/DTD/svg11.dtd">
<svg width="100%" height="100%" viewBox="0 0 128 128" version="1.1" xmlns="http://www.w3.org/2000/svg" xmlns:xlink="http://www.w3.org/1999/xlink" xml:space="preserve" xmlns:serif="http://www.serif.com/" style="fill-rule:evenodd;clip-rule:evenodd;stroke-linejoin:round;stroke-miterlimit:2;">
    <g transform="matrix(-5.13683e-17,-0.278679,0.280143,-5.12856e-17,-20.084,147.228)">
        <path d="M499.578,500.024C398.874,500.024 298.651,399.952 298.651,300.147C398.97,300.147 499.578,399.836 499.578,500.024Z" style="fill:rgb(133,212,230);"/>
    </g>
    <g transform="matrix(1.71111e-17,0.279503,-0.2802,1.71608e-17,204.101,-187.53)">
        <path d="M899.917,500.024C801.697,398.32 801.583,398.182 699.582,300.147C797.943,401.884 798.048,401.99 899.917,500.024Z" style="fill:white;"/>
    </g>
    <g transform="matrix(-5.13735e-17,-0.278708,0.280143,-5.12856e-17,-76.0897,203.236)">
        <path d="M499.578,500.024C398.874,500.024 298.651,399.952 298.651,300.147C398.97,300.147 499.578,399.836 499.578,500.024Z" style="fill:rgb(133,212,230);"/>
    </g>
    <g transform="matrix(1.71164e-17,0.279532,-0.2802,1.71573e-17,148.095,-131.555)">
        <path d="M899.917,500.024C801.697,398.32 801.583,398.182 699.582,300.147C797.943,401.884 798.048,401.99 899.917,500.024Z" style="fill:white;"/>
    </g>
    <g transform="matrix(0.278708,-6.55393e-18,6.23459e-18,0.280114,-75.2476,-76.0697)">
        <path d="M499.578,500.024C398.874,500.024 298.651,399.952 298.651,300.147C398.97,300.147 499.578,399.836 499.578,500.024Z" style="fill:rgb(124,214,154);"/>
    </g>
    <g transform="matrix(-0.279532,-2.78322e-17,2.79029e-17,-0.280171,259.544,148.093)">
        <path d="M899.917,500.024C801.697,398.32 801.583,398.182 699.582,300.147C797.943,401.884 798.048,401.99 899.917,500.024Z" style="fill:white;"/>
    </g>
    <g transform="matrix(0.278708,-6.55393e-18,6.23523e-18,0.280143,-19.2476,-20.084)">
        <path d="M499.578,500.024C398.874,500.024 298.651,399.952 298.651,300.147C398.97,300.147 499.578,399.836 499.578,500.024Z" style="fill:rgb(124,214,154);"/>
    </g>
    <g transform="matrix(-0.279532,-2.78357e-17,2.79023e-17,-0.2802,315.544,204.101)">
        <path d="M899.917,500.024C801.697,398.32 801.583,398.182 699.582,300.147C797.943,401.884 798.048,401.99 899.917,500.024Z" style="fill:white;"/>
    </g>
</svg>
